<svg width="25" height="25" viewBox="0 0 25 25" fill="none" xmlns="http://www.w3.org/2000/svg">
<path d="M3.63016 15.4683C3.64397 14.9185 3.85139 14.4529 4.25242 14.0715C4.65345 13.6901 5.12922 13.506 5.67973 13.5191L9.67847 13.6195C10.2283 13.6333 10.6939 13.8411 11.0753 14.2428C11.4566 14.6445 11.6408 15.1199 11.6276 15.6691L11.5273 19.6678C11.5135 20.2176 11.3057 20.6836 10.904 21.0656C10.5023 21.4477 10.0268 21.6315 9.47769 21.617L5.47895 21.5166C4.92913 21.5028 4.46319 21.2954 4.08113 20.8943C3.69908 20.4933 3.51529 20.0175 3.52978 19.467L3.63016 15.4683ZM13.627 15.7193C13.6408 15.1694 13.8482 14.7038 14.2493 14.3225C14.6503 13.9411 15.1261 13.7569 15.6766 13.7701L19.6753 13.8705C20.2251 13.8843 20.6907 14.092 21.0721 14.4937C21.4535 14.8954 21.6376 15.3709 21.6245 15.92L21.5241 19.9188C21.5103 20.4686 21.3025 20.9345 20.9008 21.3166C20.4991 21.6986 20.0237 21.8824 19.4745 21.868L15.4758 21.7676C14.926 21.7538 14.46 21.5463 14.078 21.1453C13.6959 20.7443 13.5121 20.2685 13.5266 19.718L13.627 15.7193ZM13.878 5.72242C13.8918 5.1726 14.0992 4.70699 14.5002 4.3256C14.9013 3.94421 15.377 3.76009 15.9275 3.77325L19.9263 3.87363C20.4761 3.88744 20.9417 4.09519 21.3231 4.49689C21.7045 4.89858 21.8886 5.37402 21.8755 5.9232L21.7751 9.92194C21.7613 10.4718 21.5535 10.9377 21.1518 11.3197C20.7501 11.7018 20.2747 11.8856 19.7255 11.8711L15.7268 11.7707C15.1769 11.7569 14.711 11.5495 14.3289 11.1485C13.9469 10.7474 13.7631 10.2716 13.7776 9.72116L13.878 5.72242ZM3.88113 5.47146C3.89493 4.92163 4.10235 4.45602 4.50338 4.07463C4.90441 3.69325 5.38018 3.50913 5.93069 3.52228L9.92943 3.62267C10.4793 3.63647 10.9449 3.84422 11.3262 4.24592C11.7076 4.64762 11.8917 5.12305 11.8786 5.67223L11.7782 9.67097C11.7644 10.2208 11.5567 10.6867 11.1549 11.0688C10.7532 11.4508 10.2778 11.6346 9.72866 11.6201L5.72992 11.5198C5.18009 11.506 4.71415 11.2985 4.3321 10.8975C3.95004 10.4964 3.76626 10.0207 3.78074 9.4702L3.88113 5.47146Z" fill="#5571FF"/>
</svg>
