<svg width="24" height="24" viewBox="0 0 24 24" fill="none" xmlns="http://www.w3.org/2000/svg">
<g clip-path="url(#clip0_22_158)">
<path d="M9.78604 30.8027C12.034 29.8691 11.5415 27.2952 10.4049 25.6682C9.28088 24.0012 7.72751 22.8543 6.16152 21.7474C5.04394 21.004 4.04626 20.0765 3.20633 19.0001C2.85271 18.56 2.13286 17.7465 2.86534 17.5865C3.61045 17.4264 4.89861 18.1999 5.55532 18.4933C6.70456 19.0001 7.84117 19.5869 8.90201 20.2804L10.1775 18.0132C8.20742 16.6396 5.68161 15.426 3.33262 15.0659C1.99394 14.8525 0.579491 15.1459 0.124846 16.6796C-0.279283 17.9999 0.364797 19.3335 1.09728 20.3737C2.82746 22.8143 5.51744 23.9879 7.52545 26.095C7.95484 26.5351 8.47262 27.0552 8.72521 27.6687C8.99041 28.2554 8.92727 28.2955 8.33371 28.2955C6.76771 28.2955 4.81021 27.0018 3.53468 26.1483L2.25915 28.4155C4.19139 29.6691 7.42442 31.6295 9.78604 30.8027ZM23.7916 9.99816C24.0695 9.70476 24.0695 9.22465 23.7916 8.94459L22.1498 7.21088C22.0179 7.07564 21.8412 7 21.6573 7C21.4734 7 21.2968 7.07564 21.1648 7.21088L19.8766 8.57118L22.5035 11.3451M11.3647 17.5598V20.3337H13.9915L21.7583 12.132L19.1315 9.35802L11.3647 17.5598Z" fill="#FD7A76"/>
</g>
<defs>
<clipPath id="clip0_22_158">
<rect width="24" height="24" fill="white"/>
</clipPath>
</defs>
</svg>
