<svg width="16" height="20" viewBox="0 0 16 20" fill="none" xmlns="http://www.w3.org/2000/svg">
<path d="M8 4.00006C8.26522 4.00006 8.51957 3.8947 8.70711 3.70717C8.89464 3.51963 9 3.26528 9 3.00006C9 2.73484 8.89464 2.48049 8.70711 2.29295C8.51957 2.10542 8.26522 2.00006 8 2.00006C7.73478 2.00006 7.48043 2.10542 7.29289 2.29295C7.10536 2.48049 7 2.73484 7 3.00006C7 3.26528 7.10536 3.51963 7.29289 3.70717C7.48043 3.8947 7.73478 4.00006 8 4.00006ZM7 5.83006C6.3338 5.59502 5.77187 5.1325 5.41314 4.52391C5.05442 3.91532 4.92189 3.19968 5.03889 2.503C5.15589 1.80631 5.51492 1.17323 6.05278 0.715208C6.59063 0.257191 7.27282 0.00360211 7.97925 -0.000915157C8.68569 -0.00543243 9.37107 0.239412 9.91473 0.690513C10.4584 1.14161 10.8255 1.77005 10.9514 2.46519C11.0773 3.16032 10.9539 3.87759 10.603 4.49072C10.2521 5.10385 9.69614 5.57352 9.033 5.81706V7.84506C9.033 7.91906 9.03033 7.99273 9.025 8.06606C9.05492 8.19796 9.1113 8.32242 9.19071 8.43191C9.27012 8.5414 9.37092 8.63365 9.487 8.70306L12.573 10.5491C13.0182 10.8154 13.3868 11.1926 13.6427 11.644C13.8986 12.0953 14.0331 12.6052 14.033 13.1241V14.1831C14.6976 14.427 15.2546 14.898 15.6055 15.5129C15.9564 16.1277 16.0786 16.8468 15.9506 17.5431C15.8225 18.2394 15.4524 18.868 14.9057 19.3178C14.359 19.7676 13.6709 20.0096 12.963 20.0011C12.2551 19.9926 11.573 19.7341 11.0373 19.2713C10.5016 18.8086 10.1467 18.1713 10.0354 17.4721C9.92407 16.773 10.0635 16.057 10.4291 15.4507C10.7946 14.8445 11.3627 14.387 12.033 14.1591V13.1241C12.0329 12.9511 11.988 12.7812 11.9027 12.6308C11.8173 12.4804 11.6944 12.3548 11.546 12.2661L8.46 10.4201C8.3024 10.3259 8.15377 10.2174 8.016 10.0961C7.87854 10.2174 7.73026 10.3258 7.573 10.4201L4.487 12.2661C4.33857 12.3548 4.21568 12.4804 4.13032 12.6308C4.04497 12.7812 4.00007 12.9511 4 13.1241V14.1711C4.66749 14.407 5.23009 14.8713 5.58836 15.4819C5.94662 16.0925 6.07749 16.8101 5.95781 17.5078C5.83814 18.2056 5.47563 18.8386 4.93437 19.2949C4.39311 19.7513 3.70795 20.0015 3 20.0015C2.29205 20.0015 1.60689 19.7513 1.06563 19.2949C0.524368 18.8386 0.161863 18.2056 0.042188 17.5078C-0.0774873 16.8101 0.0533734 16.0925 0.411639 15.4819C0.769905 14.8713 1.33251 14.407 2 14.1711V13.1241C1.99992 12.6052 2.1344 12.0953 2.39029 11.644C2.64619 11.1926 3.01475 10.8154 3.46 10.5491L6.546 8.70306C6.66208 8.63365 6.76288 8.5414 6.84229 8.43191C6.9217 8.32242 6.97807 8.19796 7.008 8.06606C7.00262 7.99252 6.99995 7.9188 7 7.84506V5.83006ZM3 18.0001C3.26522 18.0001 3.51957 17.8947 3.70711 17.7072C3.89464 17.5196 4 17.2653 4 17.0001C4 16.7348 3.89464 16.4805 3.70711 16.293C3.51957 16.1054 3.26522 16.0001 3 16.0001C2.73478 16.0001 2.48043 16.1054 2.29289 16.293C2.10536 16.4805 2 16.7348 2 17.0001C2 17.2653 2.10536 17.5196 2.29289 17.7072C2.48043 17.8947 2.73478 18.0001 3 18.0001ZM13 18.0001C13.2652 18.0001 13.5196 17.8947 13.7071 17.7072C13.8946 17.5196 14 17.2653 14 17.0001C14 16.7348 13.8946 16.4805 13.7071 16.293C13.5196 16.1054 13.2652 16.0001 13 16.0001C12.7348 16.0001 12.4804 16.1054 12.2929 16.293C12.1054 16.4805 12 16.7348 12 17.0001C12 17.2653 12.1054 17.5196 12.2929 17.7072C12.4804 17.8947 12.7348 18.0001 13 18.0001Z" fill="#F83A3C"/>
</svg>
