<svg width="18" height="18" viewBox="0 0 18 18" fill="none" xmlns="http://www.w3.org/2000/svg">
<path fill-rule="evenodd" clip-rule="evenodd" d="M15.977 11.79C16.8322 10.9346 17.4477 9.86955 17.7621 8.70149C18.0764 7.53343 18.0784 6.3033 17.768 5.1342C17.4576 3.9651 16.8456 2.89802 15.9932 2.03974C15.1408 1.18145 14.078 0.562057 12.9111 0.243531C11.7442 -0.0749949 10.5141 -0.0814826 9.34387 0.224717C8.17366 0.530917 7.10438 1.13907 6.24302 1.98831C5.38166 2.83756 4.75843 3.89812 4.43569 5.06389C4.11295 6.22965 4.10202 7.45973 4.40399 8.63104C4.49899 9.00004 4.41399 9.39904 4.14599 9.66804L0.432993 13.38C0.276117 13.537 0.156557 13.7273 0.083163 13.9367C0.00976891 14.1462 -0.0155798 14.3695 0.00899287 14.59L0.240993 16.679C0.265993 16.902 0.365993 17.109 0.523993 17.268L0.731993 17.476C0.891095 17.6337 1.09851 17.7333 1.32099 17.759L3.40999 17.991C3.63057 18.0156 3.85384 17.9903 4.06329 17.9169C4.27274 17.8435 4.463 17.7239 4.61999 17.567L5.32999 16.857L3.58299 15.129C3.51109 15.0602 3.45361 14.9777 3.41391 14.8865C3.3742 14.7952 3.35306 14.6969 3.35172 14.5974C3.35038 14.4979 3.36886 14.3991 3.40609 14.3068C3.44332 14.2144 3.49856 14.1305 3.56858 14.0597C3.6386 13.989 3.722 13.9329 3.81392 13.8947C3.90584 13.8565 4.00444 13.837 4.10398 13.8373C4.20352 13.8376 4.302 13.8577 4.39368 13.8965C4.48536 13.9352 4.56842 13.9919 4.63799 14.063L6.38999 15.796L8.33199 13.854C8.60199 13.584 8.99999 13.501 9.36899 13.596C10.5323 13.8964 11.754 13.8878 12.9129 13.571C14.0719 13.2542 15.1281 12.6403 15.977 11.79ZM9.58599 5.58604C9.77049 5.39502 9.99118 5.24265 10.2352 5.13784C10.4792 5.03302 10.7416 4.97785 11.0072 4.97554C11.2727 4.97323 11.5361 5.02383 11.7819 5.1244C12.0277 5.22496 12.251 5.37346 12.4388 5.56125C12.6266 5.74903 12.7751 5.97234 12.8756 6.21813C12.9762 6.46392 13.0268 6.72728 13.0245 6.99284C13.0222 7.2584 12.967 7.52084 12.8622 7.76485C12.7574 8.00886 12.605 8.22954 12.414 8.41404C12.0368 8.77835 11.5316 8.97994 11.0072 8.97539C10.4828 8.97083 9.98117 8.76049 9.61036 8.38968C9.23954 8.01886 9.0292 7.51724 9.02464 6.99284C9.02009 6.46845 9.22168 5.96324 9.58599 5.58604Z" fill="#40DAA4"/>
</svg>
