<svg width="21" height="21" viewBox="0 0 21 21" fill="none" xmlns="http://www.w3.org/2000/svg">
<path fill-rule="evenodd" clip-rule="evenodd" d="M15.8346 3.32147L20.8079 4.44662L7.9006 14.4353C8.29728 15.0747 8.51831 15.8331 8.49802 16.6415C8.44258 18.8499 6.60729 20.5953 4.39886 20.5399C2.19043 20.4844 0.445081 18.6491 0.500521 16.4408C0.555963 14.2323 2.39125 12.487 4.59963 12.5424C5.17217 12.5568 5.71367 12.6908 6.20059 12.9199L8.41342 10.7154L6.28303 8.26112C5.79446 8.4563 5.25925 8.55769 4.70002 8.54365C2.49164 8.48821 0.74624 6.65297 0.801682 4.44454C0.857123 2.23611 2.69241 0.490765 4.90079 0.546206C7.10922 0.601648 8.85462 2.43684 8.79918 4.64532C8.77888 5.4537 8.52007 6.20007 8.09181 6.81877L10.3667 8.76924L15.8346 3.32147ZM4.77531 5.5446C4.2232 5.53074 3.78688 5.07194 3.80074 4.51983C3.8146 3.96773 4.27339 3.5314 4.8255 3.54526C5.37766 3.55912 5.81398 4.01792 5.80012 4.57003C5.78626 5.12213 5.32746 5.55846 4.77531 5.5446ZM4.47415 17.5408C3.92204 17.527 3.48572 17.0682 3.49958 16.5161C3.51344 15.9639 3.97223 15.5276 4.52434 15.5415C5.0765 15.5553 5.51282 16.0141 5.49896 16.5662C5.4851 17.1184 5.0263 17.5547 4.47415 17.5408ZM15.4456 18.8166L20.4817 17.4426L14.2108 12.0655L11.448 14.2113L15.4456 18.8166Z" fill="#7151FF"/>
</svg>
